<svg xmlns="http://www.w3.org/2000/svg" width="32" height="32" viewBox="0 0 32 32" fill="none">
  <path fill-rule="evenodd" clip-rule="evenodd" d="M2.66667 9.33335C2.66667 5.65146 5.65144 2.66669 9.33334 2.66669H22.6667C26.3486 2.66669 29.3333 5.65146 29.3333 9.33335V22.6667C29.3333 26.3486 26.3486 29.3334 22.6667 29.3334H9.33334C5.65144 29.3334 2.66667 26.3486 2.66667 22.6667V9.33335ZM9.33334 5.33335C7.1242 5.33335 5.33334 7.12421 5.33334 9.33335V22.6667C5.33334 24.8758 7.1242 26.6667 9.33334 26.6667H22.6667C24.8758 26.6667 26.6667 24.8758 26.6667 22.6667V9.33335C26.6667 7.12421 24.8758 5.33335 22.6667 5.33335H9.33334ZM10.6667 22.6667C10.6667 21.9303 11.2636 21.3334 12 21.3334H20C20.7364 21.3334 21.3333 21.9303 21.3333 22.6667C21.3333 23.4031 20.7364 24 20 24H12C11.2636 24 10.6667 23.4031 10.6667 22.6667Z" fill="#12453B"/>
</svg>